<svg enable-background="new 0 0 1080 1080" viewBox="0 0 1080 1080" xmlns="http://www.w3.org/2000/svg"><path d="m0 0h1080v1080h-1080z" fill="#c00000"/><g fill="#fff"><path d="m275.5 521.3v-156.5h44.7v298.1c0 1.7-.7 3.2-2 4.5s-2.8 2-4.5 2c-1.9 0-3.5-.7-4.7-2.2-.5-.5-11.6-19.5-33.4-57l-107.8-187c-1-2.4-2.9-5.2-5.8-8.4-4.1-3.9-9-5.8-14.5-5.8-5.6 0-10.3 2-14.3 6s-6 8.9-6 14.7v184.1h-44.4v-184c0-18.2 6.3-33.5 18.9-46.1s27.8-18.9 45.7-18.9 33.2 6.3 45.7 18.9c2.9 2.7 5.4 5.6 7.6 8.7m-14.8 90.1 107.8 187c1 2.4 2.9 5.2 5.8 8.4 4.1 3.9 9 5.8 14.5 5.8 5.6 0 10.3-2 14.3-6s6-8.9 6-14.7v-298.2h44.3v298.1c0 18.2-6.3 33.5-18.9 46.1s-27.8 18.9-45.7 18.9-33.2-6.3-45.7-18.9c-2.9-2.7-5.4-5.6-7.6-8.7l-.4.4-74.4-129.2v42.5h-44.7v-184.2c0-1.7.7-3.2 2-4.5s2.8-2 4.5-2c1.9 0 3.5.6 4.7 1.8.5.7 11.7 19.9 33.5 57.4z"/><path d="m473.2 611.4h-44.3v-143.5c1.2-27.6 11.7-51.4 31.6-71.5 21.3-21.1 47-31.6 77-31.6h139.3l-24.8 44.3h-114.5c-17.7 0-32.8 6.3-45.4 18.9s-18.9 27.7-18.9 45.4zm59.6-118h101.2v44.3h-146.3v-69.7h.4c1-11.4 5.7-21.4 14.2-30.1 9.7-9.4 21.2-14.2 34.5-14.2h120.2v43.9h-109.7c-3.9 0-7.3 1.5-10.2 4.4s-4.4 6.3-4.4 10.2v11.2zm-.8 106v12h-44.3v-56.3h146.3v44.3z"/><path d="m864.9 521.3v-57.3l44.7-2.5v201.4c0 1.7-.7 3.2-2 4.5s-2.8 2-4.5 2c-1.9 0-3.5-.7-4.7-2.2-.5-.5-11.6-19.5-33.4-57l-107.8-187c-1-2.4-2.9-5.2-5.8-8.4-4.1-3.9-9-5.8-14.5-5.8-5.6 0-10.3 2-14.3 6s-6 8.9-6 14.7v298.1h-44.3v-298c0-18.2 6.3-33.5 18.9-46.1s27.8-18.9 45.7-18.9 33.2 6.3 45.7 18.9c2.9 2.7 5.4 5.6 7.6 8.7m-14.9 90.1 107.8 187c1 2.4 2.9 5.2 5.8 8.4 4.1 3.9 9 5.8 14.5 5.8 5.6 0 10.3-2 14.3-6s6-8.9 6-14.7v-184.2l44.3-17.3v201.4c0 18.2-6.3 33.5-18.9 46.1s-27.8 18.9-45.7 18.9-33.2-6.3-45.7-18.9c-2.9-2.7-5.4-5.6-7.6-8.7l-.4.4-74.4-129.2v156.5h-44.7v-298.2c0-1.7.7-3.2 2-4.5s2.8-2 4.5-2c1.9 0 3.5.6 4.7 1.8.5.7 11.7 19.9 33.5 57.4z"/><path d="m122.9 664.7c-12.5 12.6-27.7 18.9-45.6 18.9h-28.3v44.3h28.3c30 0 55.5-10.6 76.6-31.8s31.7-46.8 31.9-76.8v-8.9c-2.8.6-5.1 1.6-6.2.5-12.8-9.1-25.5-14.2-38.4-17v25.4c.2 17.7-5.9 32.8-18.3 45.4z"/><path d="m82.8 591v19.2c0 3.9-1.5 7.3-4.4 10.2s-6.3 4.4-10.2 4.4h-19.2v44.3h29.4c13.6 0 25.1-4.8 34.5-14.3 9.4-9.6 14.2-21 14.2-34.3v-28.7c-14.5-1.6-29.3-1-44.3-.8z"/><path d="m469.3 664.7c-12.5 12.6-27.7 18.9-45.6 18.9h-28.3l-25.4 44.3h53.7c30 0 55.5-10.6 76.6-31.8s31.7-46.8 31.9-76.8v-8.9c-2.8.6-5.1 1.6-6.2.5-12.8-9.1-25.5-14.2-38.4-17v25.4c.3 17.7-5.8 32.8-18.3 45.4z"/><path d="m429.2 591v19.2c0 3.9-1.5 7.3-4.4 10.2s-6.3 4.4-10.2 4.4h-19.2v44.3h29.4c13.6 0 25.1-4.8 34.5-14.3 9.4-9.6 14.2-21 14.2-34.3v-28.7c-14.5-1.6-29.2-1-44.3-.8z"/><path d="m972.4 424.8c-13.6 0-25.1 4.8-34.5 14.3-9.4 9.6-14.2 21-14.2 34.3v5.6c14.9 3.1 29.9 6.4 44.3 12.3v-8.1c0-3.9 1.5-7.3 4.4-10.2s6.3-4.4 10.2-4.4h19.2v-43.9h-29.4z"/><path d="m928.1 428.4c12.5-12.6 27.7-18.9 45.6-18.9h28v-44.3h-28.3c-30 0-55.5 10.6-76.6 31.8-18.1 18.2-29.1 42.2-31.8 67 14.2 6.8 29.6 8.1 44.5 11.3v-1.5c-.1-17.7 6.1-32.8 18.6-45.4z"/><path d="m393.5 683.4s-5.3 21.2-34.7 44.5h13.6l29.7-44.3z"/><path d="m654.4 409.1s16.5-44.3 39.4-44.3h-23.2l-24.3 44.3z"/><path d="m737.6 841.7c0-25 0-50 0-75.2h12.8v97c-4.7 0-9.4.1-14-.1-.6 0-1.4-1-1.8-1.7-15.1-23.6-30.2-47.2-45.4-70.9-.6-1-1.2-1.9-2.3-2.8v75.4c-4.5 0-8.6 0-12.9 0 0-32.2 0-64.5 0-97 4.6 0 9.2-.1 13.8.1.7 0 1.5 1.1 2 1.9 14.2 22.1 28.3 44.1 42.5 66.2 1.6 2.5 3.2 4.9 4.8 7.4.1-.2.3-.3.5-.3z"/><path d="m61.9 863.4c-4.5 0-8.6 0-12.9 0 0-32.3 0-64.5 0-97 4.7 0 9.4-.1 14 .1.7 0 1.4 1.3 1.9 2.1 14.6 22.7 29.1 45.4 43.7 68.1 1.1 1.8 2.3 3.5 3.9 5.2 0-25 0-50.1 0-75.3h12.9v97c-4.7 0-9.2.1-13.7-.1-.8 0-1.7-1.1-2.2-2-10.6-16.5-21.1-33-31.7-49.5-4.7-7.3-9.4-14.6-14-22-.4-.7-.9-1.3-1.7-2.5-.2 25.5-.2 50.6-.2 75.9z"/><path d="m910.9 848.8c2-7.7 4.1-15.4 6.1-23.2 3-11.5 6.1-23 9-34.5.5-1.8 1.3-2.4 3.1-2.3 3.4.1 6.7 0 10.5 0-.6 2.1-1 3.9-1.5 5.6-6.4 22.1-12.8 44.3-19.1 66.5-.6 2-1.4 2.8-3.6 2.6-3.2-.2-6.5-.2-9.7 0-2.1.1-3-.6-3.6-2.6-5.2-17.9-10.6-35.8-15.9-53.7-.2-.7-.4-1.4-.8-2.6-.5 1.2-.8 2-1 2.7-5.2 17.7-10.5 35.5-15.6 53.3-.7 2.4-1.7 3.1-4.1 3-3.4-.2-6.8 0-10.2-.1-.7 0-1.9-.8-2.1-1.4-7.2-24-14.3-48-21.3-72-.1-.2 0-.5 0-1.1 4.1 0 8.2-.1 12.3.1.5 0 1.3 1.3 1.5 2.1 3.5 12.9 6.9 25.9 10.4 38.8 1.7 6.3 3.4 12.6 5.2 19.6.5-1.5.9-2.4 1.2-3.4 5.2-18.2 10.5-36.4 15.6-54.6.6-2 1.4-2.8 3.6-2.7 3.2.2 6.5.2 9.7 0 2-.1 2.9.6 3.4 2.5 5.1 18.3 10.3 36.6 15.5 54.9.2.9.5 1.7.8 2.6.2-.1.4-.1.6-.1z"/><path d="m487.2 853.2v10c-9.2 2.7-15.2-.5-18.7-9.4-3 2.6-5.8 6-9.4 7.9-10.4 5.5-21.3 5.6-31.6-.2-12.7-7.1-12.7-27.9-.4-35.7 5.5-3.5 11.7-4.4 17.9-5.4 4.9-.7 9.8-1.4 14.7-2.3 5.2-1 7.2-3.2 7.7-7.7.6-5.1-1.5-10-5.7-11.7-7-3-14.2-2.9-21.2.3-3.5 1.6-5.1 4.4-6.5 10.4-4.2 0-8.5 0-13.1 0 .1-5.5 2.2-10 5.6-13.9 4.3-4.9 10.1-7.2 16.3-8.2 6.7-1.1 13.4-1 20 .4 10.2 2.3 16.2 8.8 17.2 19.2.5 5.2.5 10.4.5 15.6.1 7.6 0 15.2 0 22.8.2 6.1.7 6.7 6.7 7.9zm-19.1-28.9c-3.3 1.1-5.7 2.2-8.2 2.8-2.9.7-5.9 1-8.8 1.7-4.2.9-8.5 1.6-12.5 3.1-5.5 2.1-7.9 7.3-7 13.1 1 5.9 4.6 9.5 10.6 10.1 2.8.3 5.6.3 8.4 0 7.6-.7 14-5.7 15.6-13.2 1.3-5.7 1.3-11.7 1.9-17.6z"/><path d="m510.4 766.4v55.9c1.1-1 1.8-1.6 2.5-2.2 10.2-9.8 20.3-19.7 30.6-29.5 1-1 2.7-1.6 4.1-1.7 4.6-.2 9.2-.1 12.6-.1-3.6 4-7.4 8.5-11.5 12.8-4.7 4.9-9.7 9.5-14.7 14.1-1.6 1.4-1.8 2.4-.5 4.3 9.4 13.6 18.8 27.3 28.1 40.9.5.7.9 1.5 1.6 2.6-5.2 0-10 .1-14.7-.1-.7 0-1.6-1.1-2.1-1.8-7.6-10.9-15.2-21.9-22.7-32.9-.5-.7-1-1.3-1.6-2.2-3.8 3.6-7.4 7.1-11 10.6-.5.5-.6 1.7-.6 2.5v20.9 2.8c-4.5 0-8.6 0-13 0 0-32.3 0-64.6 0-96.9z"/><path d="m306.7 829.4c-18.4 0-36.6 0-55.4 0 .3 2.6.4 4.8.9 7 2.1 9.1 6.8 16 16.6 18 9.6 1.9 19.7-.7 23.6-11.8.2-.5.9-1.2 1.5-1.2 4-.1 8.1-.1 12.4-.1-1.6 7.7-5.4 13.7-11.5 18.2-12.8 9.4-39.9 9.1-50.9-10.1-4.8-8.4-6.3-17.5-5.7-27 .4-5.9 1.7-11.6 4.3-17 5.6-11.7 15.1-18 28-18.8 20.1-1.2 32.9 11 36 30.9.5 3.2.4 6.4.6 9.6-.2.8-.3 1.4-.4 2.3zm-13.1-9.5c-.6-13.8-9.3-24.4-23.6-23-10.7 1.1-18.5 11.2-18.2 23z"/><path d="m616.4 841.4h13.5c-1.3 6.3-4.2 11.5-8.7 15.7-6.2 5.9-13.9 8.2-22.3 8.3-12.4.2-22.9-3.7-30.3-14.2-10.1-14.5-9.1-39.2 1.8-53 13-16.5 46.2-17 56.3 8.1 3 7.5 4.5 16.1 3.6 23.1-18.3 0-36.6 0-55.3 0 .2 6.3 1.6 11.9 4.9 16.9 6.7 10.2 21.1 10.4 28.6 6 4.3-2.6 6.5-6.5 7.9-10.9zm.9-21.5c-.4-13.2-8.8-23.4-21.5-23.1-12.6.3-20.4 11.4-20.2 23.1z"/><path d="m830.7 829.5c-19 0-37.2 0-55.5 0-.8 10.7 5.4 23.8 18.5 25.2 2.8.3 5.7.3 8.4-.2 6.6-1.1 11.1-5 13.3-11.3.6-1.6 1.3-2 2.9-1.9 3.6.1 7.3 0 11.3 0-.3 1.3-.5 2.5-.9 3.6-4.5 12.6-13.8 19.1-26.8 20.3-13.5 1.2-25.3-2.4-33.5-14-4-5.7-6-12.3-6.7-19.2-.9-9 0-17.9 3.9-26.2 5.6-11.8 15-18.3 28-19.1 19.5-1.3 32.4 10.2 35.9 29.5.7 4.2.8 8.5 1.2 13.3zm-55.6-9.7h42c-.3-12.6-8.2-22.8-20.3-23-12.3-.2-21.3 9.1-21.7 23z"/><path d="m367 777.6v30.8h45.5v11.4c-15 0-30.1 0-45.5 0v43.5c-4.6 0-8.8 0-13.3 0 0-32.2 0-64.4 0-96.8h62.6v11.1c-16.4 0-32.7 0-49.3 0z"/><path d="m939.3 841.4h12.7c1.5 2.9 2.5 5.9 4.3 8.2 2.8 3.7 7 4.8 11.4 5.3 5.2.6 10.4.6 15.3-2 3.8-2.1 5.7-5.3 5.5-9.5-.2-4.1-2.3-7.2-6.2-8.5-5.8-2-11.7-3.3-17.6-5.1-4.4-1.3-8.9-2.5-13.1-4.5-13.5-6.4-13.9-26.2-.8-33.7 12.5-7.1 25.7-7 38.4-.5 7 3.6 10.3 10.2 11.3 18.4-4.3 0-8.4 0-12.5 0-.4 0-.9-.7-1-1.1-1.9-9.7-9.4-11.9-16.8-11.6-3.5.1-7.2 1.1-10.5 2.5-3.6 1.5-5.1 4.8-5 8.7.1 4 2.1 7.2 5.9 8.4 6.1 2 12.4 3.4 18.6 5.1 3.6 1 7.3 2 10.8 3.5 7.6 3.2 11.5 9.2 11.6 17.4.1 8.3-3.5 14.7-10.7 18.8-7.3 4.2-15.2 4.7-23.3 4.1-5.8-.4-11.4-1.7-16.5-4.7-6.3-3.7-10-9.2-11.6-16.2-.2-.9-.1-1.8-.2-3z"/><path d="m232.6 812.8c-4.7 0-8.9 0-13.3 0-.3-.9-.6-1.8-.8-2.7-2.4-7.5-8.5-12.2-16.4-12.6-12.7-.6-20.5 5.7-23.3 19.1-1.7 8-1.3 16 1.4 23.7 4.4 12.8 18.1 18.2 30.1 11.8 4.9-2.6 7.3-7 8.5-12.2.4-1.6 1-2.1 2.6-2.1 3.6.1 7.2 0 11.2 0-.9 7.5-3.6 13.8-8.7 18.8-7 7-15.8 9.1-25.3 8.7-19.5-.8-32-13-33.8-32.5-.9-9.2-.4-18.2 3.5-26.7 5.7-12.5 15.8-18.7 29.3-19.5 7.5-.5 14.7.7 21.3 4.5 8.1 4.8 12.4 12.1 13.7 21.7z"/><path d="m154.1 863.4c-4.3 0-8.5 0-12.8 0 0-24.8 0-49.5 0-74.4h12.8z"/><path d="m141.1 777.9c0-4.4 0-8.7.1-13 0-.5.9-1.4 1.4-1.4 3.8-.1 7.6-.1 11.5-.1v14.4c-4.2.1-8.4.1-13 .1z"/><path d="m820.4 819.8c-13.9 0-27.9 0-42 0"/></g></svg>