<svg viewBox="0 0 1080 1080" xmlns="http://www.w3.org/2000/svg"><path d="m0 0h1080v1080h-1080z" fill="#c00000"/><g fill="#fff"><path d="m275.5 521.3v-156.5h44.7v298.1c0 1.7-.7 3.2-2 4.5s-2.8 2-4.5 2c-1.9 0-3.5-.7-4.7-2.2-.5-.5-11.6-19.5-33.4-57l-107.8-187c-1-2.4-2.9-5.2-5.8-8.4-4.1-3.9-9-5.8-14.5-5.8-5.6 0-10.3 2-14.3 6s-6 8.9-6 14.7v184.1h-44.4v-184c0-18.2 6.3-33.5 18.9-46.1s27.8-18.9 45.7-18.9 33.2 6.3 45.7 18.9c2.9 2.7 5.4 5.6 7.6 8.7m-14.8 90.1 107.8 187c1 2.4 2.9 5.2 5.8 8.4 4.1 3.9 9 5.8 14.5 5.8 5.6 0 10.3-2 14.3-6s6-8.9 6-14.7v-298.2h44.3v298.1c0 18.2-6.3 33.5-18.9 46.1s-27.8 18.9-45.7 18.9-33.2-6.3-45.7-18.9c-2.9-2.7-5.4-5.6-7.6-8.7l-.4.4-74.4-129.2v42.5h-44.7v-184.2c0-1.7.7-3.2 2-4.5s2.8-2 4.5-2c1.9 0 3.5.6 4.7 1.8.5.7 11.7 19.9 33.5 57.4z"/><path d="m473.2 611.4h-44.3v-143.5c1.2-27.6 11.7-51.4 31.6-71.5 21.3-21.1 47-31.6 77-31.6h139.3l-24.8 44.3h-114.5c-17.7 0-32.8 6.3-45.4 18.9s-18.9 27.7-18.9 45.4zm59.6-118h101.2v44.3h-146.3v-69.7h.4c1-11.4 5.7-21.4 14.2-30.1 9.7-9.4 21.2-14.2 34.5-14.2h120.2v43.9h-109.7c-3.9 0-7.3 1.5-10.2 4.4s-4.4 6.3-4.4 10.2v11.2zm-.8 106v12h-44.3v-56.3h146.3v44.3z"/><path d="m864.9 521.3v-57.3l44.7-2.5v201.4c0 1.7-.7 3.2-2 4.5s-2.8 2-4.5 2c-1.9 0-3.5-.7-4.7-2.2-.5-.5-11.6-19.5-33.4-57l-107.8-187c-1-2.4-2.9-5.2-5.8-8.4-4.1-3.9-9-5.8-14.5-5.8-5.6 0-10.3 2-14.3 6s-6 8.9-6 14.7v298.1h-44.3v-298c0-18.2 6.3-33.5 18.9-46.1s27.8-18.9 45.7-18.9 33.2 6.3 45.7 18.9c2.9 2.7 5.4 5.6 7.6 8.7m-14.9 90.1 107.8 187c1 2.4 2.9 5.2 5.8 8.4 4.1 3.9 9 5.8 14.5 5.8 5.6 0 10.3-2 14.3-6s6-8.9 6-14.7v-184.2l44.3-17.3v201.4c0 18.2-6.3 33.5-18.9 46.1s-27.8 18.9-45.7 18.9-33.2-6.3-45.7-18.9c-2.9-2.7-5.4-5.6-7.6-8.7l-.4.4-74.4-129.2v156.5h-44.7v-298.2c0-1.7.7-3.2 2-4.5s2.8-2 4.5-2c1.9 0 3.5.6 4.7 1.8.5.7 11.7 19.9 33.5 57.4z"/><path d="m122.9 664.7c-12.5 12.6-27.7 18.9-45.6 18.9h-28.3v44.3h28.3c30 0 55.5-10.6 76.6-31.8s31.7-46.8 31.9-76.8v-8.9c-2.8.6-5.1 1.6-6.2.5-12.8-9.1-25.5-14.2-38.4-17v25.4c.2 17.7-5.9 32.8-18.3 45.4z"/><path d="m82.8 591v19.2c0 3.9-1.5 7.3-4.4 10.2s-6.3 4.4-10.2 4.4h-19.2v44.3h29.4c13.6 0 25.1-4.8 34.5-14.3 9.4-9.6 14.2-21 14.2-34.3v-28.7c-14.5-1.6-29.3-1-44.3-.8z"/><path d="m469.3 664.7c-12.5 12.6-27.7 18.9-45.6 18.9h-28.3l-25.4 44.3h53.7c30 0 55.5-10.6 76.6-31.8s31.7-46.8 31.9-76.8v-8.9c-2.8.6-5.1 1.6-6.2.5-12.8-9.1-25.5-14.2-38.4-17v25.4c.3 17.7-5.8 32.8-18.3 45.4z"/><path d="m429.2 591v19.2c0 3.9-1.5 7.3-4.4 10.2s-6.3 4.4-10.2 4.4h-19.2v44.3h29.4c13.6 0 25.1-4.8 34.5-14.3 9.4-9.6 14.2-21 14.2-34.3v-28.7c-14.5-1.6-29.2-1-44.3-.8z"/><path d="m972.4 424.8c-13.6 0-25.1 4.8-34.5 14.3-9.4 9.6-14.2 21-14.2 34.3v5.6c14.9 3.1 29.9 6.4 44.3 12.3v-8.1c0-3.9 1.5-7.3 4.4-10.2s6.3-4.4 10.2-4.4h19.2v-43.9h-29.4z"/><path d="m928.1 428.4c12.5-12.6 27.7-18.9 45.6-18.9h28v-44.3h-28.3c-30 0-55.5 10.6-76.6 31.8-18.1 18.2-29.1 42.2-31.8 67 14.2 6.8 29.6 8.1 44.5 11.3v-1.5c-.1-17.7 6.1-32.8 18.6-45.4z"/><path d="m393.5 683.4s-5.3 21.2-34.7 44.5h13.6l29.7-44.3z"/><path d="m654.4 409.1s16.5-44.3 39.4-44.3h-23.2l-24.3 44.3z"/></g></svg>